<svg xmlns="http://www.w3.org/2000/svg" xmlns:xlink="http://www.w3.org/1999/xlink" width="145" height="40" viewBox="0 0 145 40">
    <defs>
        <path id="a" d="M.154.052h26.207v6.355H.154z"/>
    </defs>
    <g fill="none" fill-rule="evenodd">
        <path fill="#00263A" d="M75.67 16.927a4.597 4.597 0 0 0-1.625-1.203c-.642-.288-1.38-.432-2.214-.432-.892 0-1.66.144-2.301.432a7.415 7.415 0 0 0-1.767 1.12V8.866h-.021v-.087h-4.56V30.74h4.58V19.927c.232-.204.468-.38.708-.536a5.1 5.1 0 0 1 .56-.32 3.18 3.18 0 0 1 1.399-.313c.348 0 .651.058.91.172.236.103.436.252.6.449.336.409.506.978.51 1.705v9.656h4.56v-9.668c0-.831-.112-1.602-.338-2.31a5.184 5.184 0 0 0-1-1.835M79.466 15.587h-.027V30.74h4.587V15.526h-4.56v.061M83.673 9.467a2.779 2.779 0 0 0-.89-.572 2.854 2.854 0 0 0-1.081-.206c-.373 0-.721.07-1.045.206a2.759 2.759 0 0 0-1.449 1.423 2.459 2.459 0 0 0-.104.29 2.59 2.59 0 0 0 .079 1.845c.14.316.337.594.585.833.25.238.536.428.858.57.322.14.669.211 1.04.211.381 0 .74-.07 1.077-.212.337-.14.633-.33.886-.57.194-.182.357-.387.488-.615a2.403 2.403 0 0 0 .38-1.31c0-.372-.074-.72-.221-1.042a2.74 2.74 0 0 0-.603-.85M99.118 16.927a4.601 4.601 0 0 0-1.625-1.203c-.643-.288-1.381-.432-2.214-.432a5.997 5.997 0 0 0-2.523.52c-.358.162-.694.36-1.007.594-.02.014-.038.03-.057.045l-.02.013c-.288.215-.566.45-.838.698l-.262-.873c-.177-.508-.55-.763-1.118-.763h-2.825v.06h-.055V30.74h4.616V19.883c.291-.256.59-.472.894-.652.099-.057.199-.11.3-.16.434-.208.9-.313 1.398-.313.665 0 1.167.207 1.51.62.342.415.512.992.512 1.732v9.63h4.653v-9.668c0-.831-.113-1.602-.339-2.31a5.194 5.194 0 0 0-1-1.835M132.153 9.467a2.78 2.78 0 0 0-.89-.572 2.854 2.854 0 0 0-1.081-.206c-.373 0-.721.07-1.045.206a2.752 2.752 0 0 0-1.449 1.423c-.142.323-.213.67-.213 1.042 0 .362.07.702.213 1.02.142.317.339.596.589.836.25.24.537.43.86.572.324.141.672.212 1.045.212.382 0 .742-.07 1.08-.212a2.95 2.95 0 0 0 .89-.572c.256-.24.457-.519.604-.836.147-.318.22-.658.22-1.02 0-.372-.073-.72-.22-1.042a2.743 2.743 0 0 0-.603-.85M127.946 30.74h4.56V15.526h-4.56zM143.45 27.498a1.185 1.185 0 0 0-.258-.301.531.531 0 0 0-.33-.096.611.611 0 0 0-.258.052 5.63 5.63 0 0 0-.235.117 1.766 1.766 0 0 1-.294.118c-.114.034-.253.05-.42.05-.323 0-.571-.114-.743-.344-.171-.23-.257-.52-.257-.873v-7.555h3.78v-3.11h-3.78V11.11h-3.199l-.184.704-.897 3.712h-2.428v2.245c0 .293.084.516.25.667a.864.864 0 0 0 .604.228h1.294v7.863c0 .675.098 1.286.294 1.834.196.548.483 1.015.86 1.401a3.81 3.81 0 0 0 1.398.895c.554.21 1.194.316 1.92.316.784 0 1.544-.11 2.28-.33a6.285 6.285 0 0 0 1.986-.991l-1.383-2.156M117.506 15.526l-5.684.011-4.198 6.137h-.254V8.778h-4.56V30.74h4.56v-7.588h.257l4.224 7.568 5.838-.01-5.214-8.214 5.03-6.97M44.863 12.694h6.007V30.74h4.952V12.694h6.007V8.778H44.863v3.916"/>
        <path fill="#00A3E0" d="M33.92 13.763l5.213 3.984-4.345-10.462-.867 6.478M38.024 19.6v-.001"/>
        <g fill="#00A3E0">
            <path d="M.421 21.275L4.912 32.09l.898-6.696L.42 21.275M5.334 6.094L0 18.937l6.399-4.89-1.065-7.953"/>
        </g>
        <path fill="#00A3E0" d="M26.157 4.265l-4.904 1.946 6.992 2.888-2.088-4.834M29.122 27.54l4.764-2.29-1.868-4.683-2.896 6.973M12.185 11.028l6.94-2.888-4.904-1.946-2.036 4.834M9.086 19.957l-1.95 4.89 4.847 2.083-2.897-6.973"/>
        <g fill="#00A3E0">
            <path d="M26.832 26.573L19.84 29.46l4.904 1.946 2.088-4.834M18.023.304L7.398 4.693l6.557.855L18.023.304"/>
        </g>
        <path fill="#00A3E0" d="M19.814 1.436"/>
        <g transform="translate(6.119 32.953)">
            <mask id="b" fill="#fff">
                <use xlink:href="#a"/>
            </mask>
            <path fill="#00A3E0" d="M15.234 6.046L26.36 1.45 19.494.554l-4.26 5.492M.154 1.088l12.877 5.32L8.154.052l-8 1.036" mask="url(#b)"/>
        </g>
        <path fill="#00A3E0" d="M120.046 25.968l4.064-3.472h-6.268l2.204 3.472"/>
    </g>
</svg>
